<?xml version="1.0" encoding="UTF-8" standalone="no"?>
<!-- Created with Inkscape (http://www.inkscape.org/) -->

<svg
   width="210mm"
   height="297mm"
   viewBox="0 0 210 297"
   version="1.1"
   id="svg1"
   xml:space="preserve"
   inkscape:version="1.4 (86a8ad7, 2024-10-11)"
   sodipodi:docname="icons_website.svg"
   xmlns:inkscape="http://www.inkscape.org/namespaces/inkscape"
   xmlns:sodipodi="http://sodipodi.sourceforge.net/DTD/sodipodi-0.dtd"
   xmlns="http://www.w3.org/2000/svg"
   xmlns:svg="http://www.w3.org/2000/svg"><sodipodi:namedview
     id="namedview1"
     pagecolor="#ffffff"
     bordercolor="#000000"
     borderopacity="0.25"
     inkscape:showpageshadow="2"
     inkscape:pageopacity="0.0"
     inkscape:pagecheckerboard="0"
     inkscape:deskcolor="#d1d1d1"
     inkscape:document-units="mm"
     inkscape:zoom="0.96386485"
     inkscape:cx="479.32031"
     inkscape:cy="859.56034"
     inkscape:window-width="1920"
     inkscape:window-height="991"
     inkscape:window-x="-9"
     inkscape:window-y="-9"
     inkscape:window-maximized="1"
     inkscape:current-layer="layer1" /><defs
     id="defs1"><inkscape:path-effect
       effect="spiro"
       id="path-effect22"
       is_visible="true"
       lpeversion="1" /><inkscape:path-effect
       effect="spiro"
       id="path-effect21"
       is_visible="true"
       lpeversion="1" /><inkscape:path-effect
       effect="spiro"
       id="path-effect20"
       is_visible="true"
       lpeversion="1" /><inkscape:path-effect
       effect="spiro"
       id="path-effect18"
       is_visible="true"
       lpeversion="1" /><inkscape:path-effect
       effect="spiro"
       id="path-effect15"
       is_visible="true"
       lpeversion="1" /><inkscape:path-effect
       effect="spiro"
       id="path-effect14"
       is_visible="true"
       lpeversion="1" /><inkscape:path-effect
       effect="spiro"
       id="path-effect13"
       is_visible="true"
       lpeversion="1" /><inkscape:path-effect
       effect="spiro"
       id="path-effect12"
       is_visible="true"
       lpeversion="1" /><inkscape:path-effect
       effect="spiro"
       id="path-effect11"
       is_visible="true"
       lpeversion="1" /><inkscape:path-effect
       effect="bspline"
       id="path-effect10"
       is_visible="true"
       lpeversion="1.3"
       weight="33.333333"
       steps="2"
       helper_size="0"
       apply_no_weight="true"
       apply_with_weight="true"
       only_selected="false"
       uniform="false" /><inkscape:path-effect
       effect="bspline"
       id="path-effect9"
       is_visible="true"
       lpeversion="1.3"
       weight="33.333333"
       steps="2"
       helper_size="0"
       apply_no_weight="true"
       apply_with_weight="true"
       only_selected="false"
       uniform="false" /><inkscape:path-effect
       effect="bspline"
       id="path-effect9-1"
       is_visible="true"
       lpeversion="1.3"
       weight="33.333333"
       steps="2"
       helper_size="0"
       apply_no_weight="true"
       apply_with_weight="true"
       only_selected="false"
       uniform="false" /><inkscape:path-effect
       effect="bspline"
       id="path-effect10-6"
       is_visible="true"
       lpeversion="1.3"
       weight="33.333333"
       steps="2"
       helper_size="0"
       apply_no_weight="true"
       apply_with_weight="true"
       only_selected="false"
       uniform="false" /></defs><g
     inkscape:label="Layer 1"
     inkscape:groupmode="layer"
     id="layer1"><path
       style="fill:#ffffff;stroke:#000000;stroke-width:0.799999"
       d="M 20.036598,70.841258 H 193.03054"
       id="path1" /><path
       style="fill:#ffffff;stroke:#000000;stroke-width:0.799999"
       d="M 30.020937,100.25091 H 193.03054"
       id="path2" /><path
       style="fill:#ffffff;stroke:#000000;stroke-width:0.799999;stroke-linecap:round;stroke-linejoin:round"
       d="m 39.453001,123.71329 h 29.953016 v 22.82134 H 39.622803 Z"
       id="path3-6"
       inkscape:export-filename="computer.png"
       inkscape:export-xdpi="96"
       inkscape:export-ydpi="96" /><path
       style="fill:#000000;fill-opacity:1;stroke:#000000;stroke-width:0.795353;stroke-linecap:round;stroke-linejoin:round"
       d="m 39.586519,142.04955 h 29.675327 v 4.38552 H 39.586519 Z"
       id="path4-1" /><path
       style="fill:#000000;fill-opacity:1;stroke:#000000;stroke-width:0.799999"
       id="path5-4"
       sodipodi:type="arc"
       sodipodi:cx="54.446487"
       sodipodi:cy="143.52914"
       sodipodi:rx="0.83202821"
       sodipodi:ry="0.59430581"
       sodipodi:start="0"
       sodipodi:end="6.2148691"
       sodipodi:open="true"
       sodipodi:arc-type="arc"
       d="m 55.278516,143.52914 a 0.83202821,0.59430581 0 0 1 -0.817819,0.59422 0.83202821,0.59430581 0 0 1 -0.845752,-0.57392 0.83202821,0.59430581 0 0 1 0.78893,-0.61382 0.83202821,0.59430581 0 0 1 0.8727,0.55296" /><ellipse
       style="fill:#ffffff;fill-opacity:1;stroke:#ffffff;stroke-width:0.938513;stroke-linecap:square;stroke-linejoin:miter;stroke-miterlimit:2.6;stroke-dasharray:none;stroke-opacity:1"
       id="path7-2"
       cx="54.548367"
       cy="142.9688"
       rx="0.51376349"
       ry="0.49678332" /><path
       style="fill:#000000;fill-opacity:1;stroke:#000000;stroke-width:1.2;stroke-linecap:round;stroke-linejoin:round;stroke-miterlimit:2.6;stroke-dasharray:none;stroke-opacity:1"
       d="m 53.546541,148.33453 h 2.275342 l 0.640414,2.39005 3.225942,0.86439 v 0.54912 H 49.40338 v -0.47545 l 3.275581,-0.87769 z"
       id="path8-3" /><g
       id="g10"
       transform="translate(38.445128,-31.552322)"
       style="stroke-width:0.2;stroke-dasharray:none"
       inkscape:export-filename="food.png"
       inkscape:export-xdpi="96"
       inkscape:export-ydpi="96"><path
         style="fill:#000000;fill-opacity:1;stroke:#000000;stroke-width:0.2;stroke-linecap:square;stroke-linejoin:miter;stroke-miterlimit:2.6;stroke-dasharray:none;stroke-opacity:1"
         d="m 67.082982,86.344153 c 0.09056,2.530044 0.362243,7.420332 0.452803,9.956039 0.09056,2.535706 10e-7,2.716824 -0.113202,2.886628 -0.113203,0.169803 -0.24904,0.328281 -0.59431,0.413182 -0.345269,0.0849 -0.899944,0.09622 -1.273509,0.04528 -0.373564,-0.05094 -0.566002,-0.16414 -0.713164,-0.345265 -0.147163,-0.181124 -0.249042,-0.430161 -0.175459,-2.994215 0.07358,-2.564054 0.32262,-7.442923 0.3962,-9.97297 0.07358,-2.530048 -0.0283,-2.711165 -0.311306,-2.95455 -0.283007,-0.243385 -0.747125,-0.549024 -1.188613,-0.956553 -0.441488,-0.407529 -0.860323,-0.916923 -1.182949,-1.545198 -0.322625,-0.628274 -0.549023,-1.375386 -0.628263,-2.150822 -0.07924,-0.775435 -0.01132,-1.579146 0.107541,-2.779094 0.118863,-1.199947 0.288661,-2.796052 0.452805,-3.662042 0.164143,-0.865991 0.322621,-1.001828 0.481105,-1.075409 0.158484,-0.07358 0.316962,-0.0849 0.464125,-0.03962 0.147162,0.04528 0.283001,0.14716 0.362241,1.194291 0.07924,1.04713 0.10188,3.03943 0.147161,4.103521 0.04528,1.064092 0.113202,1.19993 0.339607,1.267851 0.226405,0.06792 0.611281,0.06792 0.865985,-0.01132 0.254704,-0.07924 0.379224,-0.237722 0.435825,-1.284851 0.0566,-1.047129 0.04528,-2.982831 0.107543,-4.001643 0.06226,-1.018811 0.198101,-1.120689 0.356585,-1.171629 0.158483,-0.05094 0.339601,-0.05094 0.475443,0.0057 0.135842,0.0566 0.226401,0.1698 0.283002,1.216931 0.0566,1.047131 0.07924,3.028109 0.152823,4.075221 0.07358,1.047112 0.198101,1.160311 0.401865,1.216911 0.203765,0.0566 0.48676,0.0566 0.701844,-0.0057 0.215084,-0.06226 0.362242,-0.18678 0.452804,-1.222589 0.09056,-1.03581 0.124522,-2.982831 0.186784,-4.024282 0.06226,-1.041451 0.152821,-1.177291 0.299984,-1.250872 0.147163,-0.07358 0.350922,-0.0849 0.543365,-0.02264 0.192443,0.06226 0.373562,0.198102 0.582986,1.437678 0.209424,1.239576 0.447141,3.582792 0.401857,5.195917 -0.04528,1.613125 -0.37356,2.496074 -0.769768,3.175286 -0.396209,0.679211 -0.860324,1.154647 -1.273511,1.522553 -0.413188,0.367907 -0.775424,0.628263 -1.001827,0.843347 -0.226403,0.215083 -0.316963,0.384883 -0.226402,2.914928 z"
         id="path9-8"
         inkscape:path-effect="#path-effect9-1"
         inkscape:original-d="m 66.901861,83.983908 c 0.271682,4.890289 0.543364,9.780577 0.815046,14.670866 -0.09056,0.181125 -0.18112,0.362243 -0.271682,0.543364 -0.135845,0.158485 -0.271682,0.316963 -0.407524,0.475445 -0.554697,0.01132 -1.109372,0.02265 -1.664055,0.03396 -0.192447,-0.113202 -0.384884,-0.226402 -0.577326,-0.339604 -0.101883,-0.249047 -0.203764,-0.498083 -0.305644,-0.747127 0.249047,-4.879065 0.498086,-9.757934 0.747128,-14.636904 -0.101883,-0.181125 -0.203761,-0.362243 -0.305644,-0.543364 -0.464132,-0.305649 -0.928249,-0.611288 -1.392373,-0.916929 -0.418854,-0.509416 -0.837689,-1.01881 -1.256532,-1.528215 -0.226407,-0.747144 -0.452806,-1.494256 -0.679207,-2.241383 0.06792,-0.803744 0.135842,-1.607455 0.203761,-2.411183 0.169807,-1.596167 0.339603,-3.192272 0.509405,-4.788408 0.158485,-0.135845 0.316963,-0.271682 0.475445,-0.407524 0.158486,-0.01132 0.316963,-0.02265 0.475446,-0.03396 0.135843,0.101883 0.271682,0.203761 0.407522,0.305641 0.02265,1.992381 0.04528,3.984681 0.06792,5.977019 0.06792,0.135846 0.135843,0.271683 0.203764,0.407525 0.384889,0 0.769765,0 1.154649,0 0.124524,-0.158485 0.249045,-0.316963 0.373566,-0.475446 -0.01132,-1.935776 -0.02265,-3.871478 -0.03396,-5.807218 0.135845,-0.101883 0.271684,-0.20376 0.407524,-0.305641 0.181126,0 0.362244,0 0.543367,0 0.09056,0.113202 0.18112,0.226401 0.271682,0.339603 0.02265,1.98106 0.04528,3.962038 0.06792,5.943058 0.124524,0.113205 0.249042,0.226404 0.373563,0.339603 0.283009,0 0.566004,0 0.849008,0 0.147164,-0.124523 0.294322,-0.249041 0.441484,-0.373562 0.03396,-1.947098 0.06792,-3.894119 0.101883,-5.841177 0.09056,-0.135845 0.18112,-0.271685 0.271682,-0.407525 0.203766,-0.01132 0.407524,-0.02265 0.611285,-0.03396 0.181126,0.135845 0.362244,0.271685 0.543365,0.407525 0.237728,2.343311 0.475445,4.686527 0.713168,7.029788 -0.32829,0.882989 -0.656566,1.765938 -0.984851,2.648908 -0.464132,0.475454 -0.928248,0.950889 -1.392372,1.426334 -0.362252,0.260366 -0.724487,0.520724 -1.086731,0.781087 -0.09056,0.169805 -0.181123,0.339604 -0.271682,0.509404 z"
         transform="translate(-15.527069,84.938789)" /><path
         style="fill:#000000;fill-opacity:1;stroke:#000000;stroke-width:0.2;stroke-linecap:square;stroke-linejoin:miter;stroke-miterlimit:2.6;stroke-dasharray:none;stroke-opacity:1"
         d="m 76.563575,85.647965 c 0.0849,2.648906 0.254702,7.946718 0.305642,10.697508 0.05094,2.750789 -0.01698,2.954548 -0.141502,3.10737 -0.124523,0.152822 -0.30564,0.254701 -0.594308,0.305642 -0.288667,0.05094 -0.684862,0.05094 -0.967867,0.01132 -0.283004,-0.03962 -0.452804,-0.118861 -0.571665,-0.249044 -0.118861,-0.130183 -0.18678,-0.311302 -0.118858,-3.096103 0.06792,-2.784802 0.27168,-8.173068 0.277338,-10.974797 0.0057,-2.801729 -0.18678,-3.016808 -0.532049,-3.305474 -0.345268,-0.288667 -0.843343,-0.650903 -1.25087,-1.086733 -0.407528,-0.43583 -0.724484,-0.945224 -0.928247,-1.584817 -0.203762,-0.639594 -0.294321,-1.409346 -0.260359,-2.281005 0.03396,-0.871659 0.192441,-1.84517 0.441487,-2.660224 0.249045,-0.815053 0.588642,-1.471607 0.95089,-1.981016 0.362247,-0.509409 0.747122,-0.871644 1.16031,-1.086727 0.413189,-0.215083 0.854665,-0.283002 1.313134,-0.266021 0.458468,0.01698 0.933904,0.11886 1.392374,0.401868 0.45847,0.283007 0.899944,0.747122 1.284831,1.403697 0.384887,0.656574 0.713164,1.505567 0.928246,2.371564 0.215083,0.865997 0.316963,1.748948 0.322622,2.490422 0.0057,0.741474 -0.0849,1.341427 -0.277345,1.850836 -0.192445,0.509409 -0.486762,0.928245 -0.85467,1.307471 -0.367908,0.379227 -0.809383,0.718825 -1.154649,0.99051 -0.345265,0.271685 -0.594302,0.475442 -0.713163,0.628265 -0.118862,0.152822 -0.107542,0.254701 -0.101882,0.305641 0.0057,0.05094 0.0057,0.05094 0.09056,2.699847 z"
         id="path10-9"
         inkscape:path-effect="#path-effect10-6"
         inkscape:original-d="m 76.478674,82.999058 c 0.169802,5.297813 0.339603,10.595625 0.509405,15.893438 -0.06792,0.203767 -0.13584,0.407525 -0.203761,0.611286 -0.181126,0.101883 -0.362244,0.203761 -0.543367,0.305644 -0.396211,0 -0.792406,0 -1.188611,0 -0.169805,-0.07924 -0.339604,-0.158483 -0.509405,-0.237723 -0.06792,-0.181126 -0.13584,-0.362244 -0.203761,-0.543367 0.203766,-5.38848 0.407524,-10.776746 0.611285,-16.165118 -0.192444,-0.215088 -0.384884,-0.430165 -0.577326,-0.645247 -0.498094,-0.362252 -0.996169,-0.724488 -1.494255,-1.086731 -0.316969,-0.509416 -0.633926,-1.01881 -0.950889,-1.528215 -0.09056,-0.769782 -0.181121,-1.539534 -0.271682,-2.309302 0.158485,-0.97355 0.316963,-1.947061 0.475446,-2.92059 0.339608,-0.656579 0.679206,-1.313132 1.018809,-1.969698 0.384892,-0.362252 0.769766,-0.724488 1.15465,-1.086731 0.441494,-0.06792 0.88297,-0.135843 1.324454,-0.203761 0.475453,0.101883 0.950889,0.203761 1.426334,0.305641 0.441495,0.464135 0.882968,0.928251 1.324454,1.392375 0.32829,0.849024 0.656566,1.698017 0.984848,2.547025 0.101883,0.882986 0.203764,1.765937 0.305644,2.648905 -0.09056,0.59998 -0.181123,1.199933 -0.271682,1.799899 -0.29433,0.418852 -0.588648,0.837687 -0.88297,1.25653 -0.441492,0.339612 -0.882968,0.67921 -1.324451,1.018813 -0.24905,0.203764 -0.498086,0.407522 -0.747128,0.611285 0.01132,0.101883 0.02265,0.203761 0.03396,0.305642 z"
         transform="translate(-15.527069,84.938789)" /></g><ellipse
       style="fill:none;fill-opacity:1;stroke:#000000;stroke-width:1.6;stroke-linecap:square;stroke-linejoin:miter;stroke-miterlimit:2.6;stroke-dasharray:none;stroke-opacity:1"
       id="path11-4"
       cx="125.819"
       cy="142.86099"
       rx="8.2190552"
       ry="8.4249334"
       inkscape:export-filename="bike.png"
       inkscape:export-xdpi="96"
       inkscape:export-ydpi="96" /><ellipse
       style="fill:none;fill-opacity:1;stroke:#000000;stroke-width:1.6;stroke-linecap:square;stroke-linejoin:miter;stroke-miterlimit:2.6;stroke-dasharray:none;stroke-opacity:1"
       id="path11-5-1"
       cx="154.2377"
       cy="142.50815"
       rx="8.2190552"
       ry="8.4249334" /><path
       style="fill:none;fill-opacity:1;stroke:#000000;stroke-width:1.6;stroke-linecap:round;stroke-linejoin:round;stroke-miterlimit:2.6;stroke-dasharray:none;stroke-opacity:1"
       d="m 153.74964,142.38061 -5.28416,-14.27413 -13.58788,4.11754 -8.8527,10.36247 11.59773,-2.47052 11.32322,-10.49973"
       id="path12-1" /><path
       style="fill:none;fill-opacity:1;stroke:#000000;stroke-width:1.6;stroke-linecap:square;stroke-linejoin:miter;stroke-miterlimit:2.6;stroke-dasharray:none;stroke-opacity:1"
       d="m 132.4757,126.52809 5.14692,13.58788"
       id="path13-3" /><path
       style="fill:none;fill-opacity:1;stroke:#000000;stroke-width:1.57514;stroke-linecap:square;stroke-linejoin:miter;stroke-miterlimit:2.6;stroke-dasharray:none;stroke-opacity:1"
       d="m 130.46089,125.53302 h 4.92175"
       id="path14-8" /><path
       style="fill:none;fill-opacity:1;stroke:#000000;stroke-width:1.6;stroke-linecap:round;stroke-linejoin:miter;stroke-miterlimit:2.6;stroke-dasharray:none;stroke-opacity:1"
       d="m 149.01447,127.48885 -1.85289,-4.46066 4.18616,-1.57839"
       id="path15-7" /><path
       style="fill:none;fill-opacity:1;stroke:#000000;stroke-width:1.6;stroke-linecap:round;stroke-linejoin:miter;stroke-miterlimit:2.6;stroke-dasharray:none;stroke-opacity:1"
       d="m 137.96574,140.39047 -1.23526,3.2254 h 1.99015"
       id="path16-4" /><path
       style="fill:none;fill-opacity:1;stroke:#000000;stroke-width:1.6;stroke-linecap:square;stroke-linejoin:miter;stroke-miterlimit:2.6;stroke-dasharray:none;stroke-opacity:1"
       d="m 129.6848,125.53584 c -0.52881,0.0395 -0.19356,-0.10434 -0.29116,-0.1456 -0.0128,-0.0128 -0.0115,-0.0357 -0.0243,-0.0485 -0.0128,-0.0128 -0.0357,-0.0115 -0.0485,-0.0243 -0.0391,-0.0391 -0.0243,-0.21985 -0.0243,-0.26689 -0.0473,-0.12894 0.0355,-0.15653 0.0728,-0.24264 0.005,-0.0153 -0.009,-0.0351 0,-0.0485 0.01,-0.0151 0.0385,-0.009 0.0485,-0.0243 0.009,-0.0135 -0.009,-0.0351 0,-0.0485 0.0201,-0.0301 0.0647,-0.0323 0.0971,-0.0485 0.0578,-0.0289 0.10842,-0.0766 0.16984,-0.097 0.16634,-0.0555 0.33567,-0.0485 0.50951,-0.0485 0.19263,0 0.39021,-0.0128 0.58231,0 0.2688,0.0179 0.53351,0.0765 0.80068,0.0971 0.0564,0.004 0.11366,-0.007 0.16984,0 0.48316,0.0919 0.97056,0.16042 1.45577,0.24264 0.0564,0.009 0.11466,0.009 0.16984,0.0243 0.0349,0.01 0.0627,0.0371 0.097,0.0485 0.22562,0.0358 0.44182,0.0656 0.65509,0.1456 0.0237,0.005 4.34502,1.00904 0.0728,0"
       id="path17"
       sodipodi:nodetypes="cssssccccscsscsccccc" /><rect
       style="fill:#000000;fill-opacity:1;stroke:#000000;stroke-width:1.6;stroke-linecap:round;stroke-linejoin:round;stroke-miterlimit:2.6;stroke-opacity:1;paint-order:stroke markers fill"
       id="rect2"
       width="26.786158"
       height="26.300901"
       x="25.136286"
       y="172.84836"
       inkscape:export-filename="hospital.png"
       inkscape:export-xdpi="96"
       inkscape:export-ydpi="96" /><rect
       style="fill:#ffffff;fill-opacity:1;stroke:#ffffff;stroke-width:1.6;stroke-linecap:round;stroke-linejoin:round;stroke-miterlimit:2.6;stroke-opacity:1;paint-order:stroke markers fill"
       id="rect3"
       width="5.6289754"
       height="18.7309"
       x="35.71487"
       y="176.73042" /><rect
       style="fill:#ffffff;fill-opacity:1;stroke:#ffffff;stroke-width:1.6;stroke-linecap:round;stroke-linejoin:round;stroke-miterlimit:2.6;stroke-opacity:1;paint-order:stroke markers fill"
       id="rect4"
       width="18.633848"
       height="5.1437187"
       x="29.018339"
       y="183.5679" /><path
       style="fill:none;fill-opacity:1;stroke:#000000;stroke-width:1.6;stroke-linecap:round;stroke-linejoin:round;stroke-miterlimit:2.6;stroke-opacity:1;paint-order:stroke markers fill"
       d="m 79.727641,184.64009 h 19.119104 l 2.668915,3.83353 h -9.899237 l -2.474807,-3.73648 -2.280705,3.88205 h -9.80218 z"
       id="path4"
       inkscape:export-filename="toys.png"
       inkscape:export-xdpi="96"
       inkscape:export-ydpi="96" /><path
       style="fill:none;fill-opacity:1;stroke:#000000;stroke-width:1.6;stroke-linecap:round;stroke-linejoin:round;stroke-miterlimit:2.6;stroke-opacity:1;paint-order:stroke markers fill"
       d="m 79.742981,189.20086 v 9.12721 h 19.215177 v -9.40171"
       id="path5" /><path
       style="fill:none;fill-opacity:1;stroke:#000000;stroke-width:1.6;stroke-linecap:round;stroke-linejoin:round;stroke-miterlimit:2.6;stroke-opacity:1;paint-order:stroke markers fill"
       d="m 89.007441,185.22058 v 12.76436"
       id="path6" /><ellipse
       style="fill:none;fill-opacity:1;stroke:#000000;stroke-width:1.6;stroke-linecap:round;stroke-linejoin:round;stroke-miterlimit:2.6;stroke-opacity:1;paint-order:stroke markers fill"
       id="path7"
       cx="85.902138"
       cy="178.1693"
       rx="3.6886277"
       ry="3.5513766" /><ellipse
       style="fill:#000000;fill-opacity:1;stroke:#000000;stroke-width:0.482473;stroke-linecap:round;stroke-linejoin:round;stroke-miterlimit:2.6;stroke-opacity:1;paint-order:stroke markers fill"
       id="path9"
       cx="-42.493832"
       cy="192.6022"
       rx="1.0633171"
       ry="1.3261188"
       transform="matrix(0.85451946,-0.51941939,0.61485473,0.78864038,0,0)" /><ellipse
       style="fill:#000000;fill-opacity:1;stroke:#000000;stroke-width:0.482473;stroke-linecap:round;stroke-linejoin:round;stroke-miterlimit:2.6;stroke-opacity:1;paint-order:stroke markers fill"
       id="path9-4"
       cx="197.79871"
       cy="-20.608467"
       rx="1.0633171"
       ry="1.3261188"
       transform="matrix(0.36525755,0.93090651,-0.88236116,0.47057282,0,0)" /><ellipse
       style="fill:#000000;fill-opacity:1;stroke:#000000;stroke-width:0.6;stroke-linecap:round;stroke-linejoin:round;stroke-miterlimit:2.6;stroke-opacity:1;paint-order:stroke markers fill;stroke-dasharray:none"
       id="path10"
       cx="85.541847"
       cy="178.73546"
       rx="0.30881536"
       ry="0.068625629" /><path
       style="fill:none;fill-opacity:1;stroke:#000000;stroke-width:1.6;stroke-linecap:round;stroke-linejoin:round;stroke-miterlimit:2.6;stroke-dasharray:none;stroke-opacity:1;paint-order:stroke markers fill"
       d="m 88.252561,181.10304 c 0.547459,0.19609 1.039589,0.54418 1.406824,0.99507 0.475741,0.58411 0.73593,1.3399 0.720569,2.09308"
       id="path11"
       inkscape:path-effect="#path-effect11"
       inkscape:original-d="m 88.252561,181.10304 c 0.491815,0.37744 0.94932,0.68625 1.406824,0.99507 0.457504,0.30882 0.48038,1.39539 0.720569,2.09308" /><path
       style="fill:none;fill-opacity:1;stroke:#000000;stroke-width:1.6;stroke-linecap:round;stroke-linejoin:round;stroke-miterlimit:2.6;stroke-dasharray:none;stroke-opacity:1;paint-order:stroke markers fill"
       d="m 83.826206,181.30892 c -0.439928,0.29771 -0.807774,0.70115 -1.063696,1.16663 -0.242734,0.44149 -0.384608,0.93805 -0.411753,1.44114"
       id="path12"
       inkscape:path-effect="#path-effect12"
       inkscape:original-d="m 83.826206,181.30892 c -0.354565,0.41175 -0.709131,0.78919 -1.063696,1.16663 -0.354566,0.37744 -0.274503,0.96076 -0.411753,1.44114" /><path
       style="fill:none;fill-opacity:1;stroke:#000000;stroke-width:1.6;stroke-linecap:round;stroke-linejoin:round;stroke-miterlimit:2.6;stroke-dasharray:none;stroke-opacity:1;paint-order:stroke markers fill"
       d="m 97.448395,184.05394 c 0.401288,-0.73261 0.615739,-1.56659 0.61763,-2.4019 0.0031,-1.34699 -0.559998,-2.682 -1.509762,-3.63716 -1.118605,-1.12496 -2.737853,-1.70006 -4.323416,-1.64701 -0.876712,0.0293 -1.746913,0.241 -2.539148,0.61763"
       id="path13"
       inkscape:path-effect="#path-effect13"
       inkscape:original-d="m 97.448395,184.05394 c 0.160126,-0.84638 0.457504,-1.55551 0.61763,-2.4019 0.160126,-0.84638 -1.075134,-2.51627 -1.509762,-3.63716 -0.434631,-1.12088 -2.905154,-1.05226 -4.323416,-1.64701 -1.418262,-0.59476 -1.647016,0.41175 -2.539148,0.61763" /><path
       style="fill:none;fill-opacity:1;stroke:#000000;stroke-width:1.6;stroke-linecap:round;stroke-linejoin:round;stroke-miterlimit:2.6;stroke-dasharray:none;stroke-opacity:1;paint-order:stroke markers fill"
       d="m 91.477964,184.19119 c 0.238755,-1.09989 0.63274,-2.16597 1.166638,-3.15678 0.667736,-1.23919 1.554859,-2.35977 2.607773,-3.29403"
       id="path14"
       inkscape:path-effect="#path-effect14"
       inkscape:original-d="m 91.477964,184.19119 c 0.388879,-1.07513 0.846383,-2.08164 1.166638,-3.15678 0.320251,-1.07513 1.692764,-2.21889 2.607773,-3.29403" /><path
       style="fill:none;fill-opacity:1;stroke:#000000;stroke-width:1.6;stroke-linecap:round;stroke-linejoin:round;stroke-miterlimit:2.6;stroke-dasharray:none;stroke-opacity:1;paint-order:stroke markers fill"
       d="m 93.605359,180.48541 c 0.839426,-0.0701 1.70043,0.15126 2.401898,0.61763 0.475723,0.31628 0.878033,0.74226 1.166636,1.23526"
       id="path15"
       inkscape:path-effect="#path-effect15"
       inkscape:original-d="m 93.605359,180.48541 c 0.892133,0.183 1.647016,0.43463 2.401898,0.61763 0.754881,0.183 0.777756,0.80063 1.166636,1.23526" /><path
       style="fill:none;fill-opacity:1;stroke:#000000;stroke-width:1.6;stroke-linecap:round;stroke-linejoin:round;stroke-miterlimit:2.6;stroke-dasharray:none;stroke-opacity:1;paint-order:stroke markers fill"
       d="m 145.18874,194.6849 h 15.43116 l -8.20721,-4.73844 z"
       id="path16"
       inkscape:export-filename="clothes.png"
       inkscape:export-xdpi="96"
       inkscape:export-ydpi="96" /><path
       style="fill:none;fill-opacity:1;stroke:#000000;stroke-width:1.6;stroke-linecap:round;stroke-linejoin:round;stroke-miterlimit:2.6;stroke-dasharray:none;stroke-opacity:1;paint-order:stroke markers fill"
       d="m 144.76622,192.84093 c -0.0796,-0.43025 0.0662,-0.89586 0.37699,-1.20386 0.1965,-0.19474 0.45271,-0.32628 0.72352,-0.38283 0.27082,-0.0566 0.55538,-0.0392 0.82055,0.0397 0.28713,0.0854 0.55465,0.2447 0.75225,0.46985 0.19759,0.22516 0.32216,0.5174 0.32861,0.81689 0.005,0.24594 -0.0694,0.49297 -0.21004,0.69479 -0.14067,0.20182 -0.34658,0.35738 -0.57916,0.43753 -0.25495,0.11337 -0.45887,0.33641 -0.549,0.60047 -0.0774,0.22665 -0.0711,0.48081 0.0172,0.70341 l 0.0171,0.82351"
       id="path18"
       inkscape:path-effect="#path-effect18"
       inkscape:original-d="m 144.76622,192.84093 c 0.15426,-0.38985 0.25704,-0.81401 0.37699,-1.20386 0.11994,-0.38984 1.0351,-0.20587 1.54407,-0.34313 0.50898,-0.13725 0.70914,0.85782 1.08086,1.28674 0.37172,0.4289 -1.0637,1.51548 -0.7892,1.13232 -0.2745,0.366 -0.366,0.39459 -0.549,0.60047 -0.183,0.20588 0.0229,0.93217 0.0172,0.70341 0.006,0.2116 0.0114,0.54329 0.0171,0.82351"
       transform="translate(6.1142318,-6.502437)" /><path
       style="fill:none;fill-opacity:1;stroke:#000000;stroke-width:1.6;stroke-linecap:round;stroke-linejoin:round;stroke-miterlimit:2.6;stroke-dasharray:none;stroke-opacity:1;paint-order:stroke markers fill"
       d="m 128.73854,195.80099 h 13.63571 v -13.2475 4.27026 l 5.58033,-1.49525 -5.67186,-9.82394 h -13.73828 l -5.54153,9.59822 5.37982,1.44151 v -5.05837 z"
       id="path19" /><path
       style="fill:none;fill-opacity:1;stroke:#000000;stroke-width:1.6;stroke-linecap:round;stroke-linejoin:round;stroke-miterlimit:2.6;stroke-dasharray:none;stroke-opacity:1;paint-order:stroke markers fill"
       d="m 132.37797,175.80842 c 0.26029,0.92134 0.90519,1.72747 1.74692,2.18366 0.45126,0.24457 0.95697,0.39115 1.4698,0.41244 0.51284,0.0213 1.03208,-0.084 1.49027,-0.31534 0.82945,-0.41877 1.42957,-1.26269 1.55282,-2.18365"
       id="path20"
       inkscape:path-effect="#path-effect20"
       inkscape:original-d="m 132.37797,175.80842 c 0.58231,0.71171 1.21314,1.47195 1.74692,2.18366 0.53379,0.71171 1.97338,0.0809 2.96007,0.0971 0.98668,0.0162 1.00286,-1.48812 1.55282,-2.18365" /><path
       style="fill:#000000;fill-opacity:1;stroke:#000000;stroke-width:0.8;stroke-linecap:round;stroke-linejoin:round;stroke-miterlimit:2.6;stroke-dasharray:none;stroke-opacity:1;paint-order:stroke markers fill"
       d="m 39.610904,239.6206 c 0.04467,-0.1125 0.121545,-0.21103 0.215413,-0.28745 0.09387,-0.0764 0.204358,-0.13119 0.320082,-0.16668 0.231447,-0.071 0.479351,-0.0652 0.720164,-0.0405 0.44287,0.0456 0.880513,0.15418 1.286706,0.33644 0.395322,0.17739 0.756762,0.42221 1.102016,0.68402 0.844614,0.64048 1.619191,1.40921 2.089101,2.35935 0.543724,1.09939 0.642259,2.40068 0.32597,3.58569 -0.249429,0.93451 -0.747779,1.79689 -1.406824,2.50484 -0.963112,1.03458 -2.296489,1.74417 -3.705784,1.85289 -0.774121,0.0597 -1.563028,-0.0607 -2.279248,-0.36045 -0.71622,-0.29977 -1.35798,-0.77948 -1.83829,-1.38951 -0.393051,-0.4992 -0.675339,-1.07886 -0.881369,-1.67989 -0.108119,-0.31541 -0.195982,-0.63772 -0.264135,-0.9641 -0.06248,-0.29923 -0.108179,-0.61102 -0.03896,-0.90876 0.03461,-0.14887 0.09848,-0.29221 0.195583,-0.41024 0.0971,-0.11804 0.228442,-0.20978 0.376124,-0.24916 0.189596,-0.0506 0.395209,-0.0123 0.571167,0.0745 0.175957,0.0868 0.325515,0.21923 0.460656,0.36149 0.22627,0.2382 0.417412,0.50697 0.623462,0.76286 0.206051,0.25589 0.431007,0.50243 0.707423,0.68 0.208501,0.13394 0.443235,0.22599 0.686255,0.2745 0.448958,0.0896 0.922857,0.0289 1.345439,-0.14723 0.422583,-0.17612 0.794391,-0.46459 1.090771,-0.81352 0.313452,-0.36903 0.546124,-0.80998 0.650148,-1.28286 0.104024,-0.47289 0.07641,-0.9774 -0.101143,-1.42786 -0.182809,-0.46379 -0.513621,-0.85362 -0.866739,-1.20551 -0.353119,-0.35189 -0.735283,-0.67645 -1.054779,-1.05913 -0.127222,-0.15238 -0.245434,-0.31604 -0.315167,-0.5019 -0.06973,-0.18585 -0.08731,-0.39741 -0.01405,-0.5819 z"
       id="path21"
       inkscape:path-effect="#path-effect21"
       inkscape:original-d="m 39.610904,239.6206 c -0.457504,-0.37744 0.632094,-0.37317 1.255659,-0.49459 0.498949,-0.0972 0.700109,-0.064 1.286706,0.33644 0.358438,0.2447 0.736362,0.39313 1.102016,0.68402 0.640456,0.50951 1.554562,1.99302 2.089101,2.35935 1.635577,1.12089 0.18872,2.40761 0.32597,3.58569 0.137252,1.17807 -0.915009,1.64701 -1.406824,2.50484 -0.491818,0.85781 -2.493399,1.21238 -3.705784,1.85289 -1.212386,0.6405 -2.722152,-1.16664 -4.117538,-1.74996 -1.395389,-0.58331 -0.458176,-0.82207 -0.881369,-1.67989 -0.1958,-0.39689 -0.359261,-0.54523 -0.264135,-0.9641 0.110474,-0.48647 0.06529,-1.26055 0.53275,-1.56816 0.51815,-0.34097 0.780196,0.29877 1.031823,0.43602 0.251626,0.13725 0.644628,0.90529 1.330885,1.44286 0.686255,0.53757 0.423191,0.183 0.686255,0.2745 0.263065,0.0915 1.647016,-0.66338 2.43621,-0.96075 0.789196,-0.29738 0.366003,-1.78427 0.549005,-2.71072 0.183001,-0.92644 -1.212385,-1.58982 -1.921518,-2.26464 -0.709131,-0.67482 0.128292,-0.70635 -0.329212,-1.0838 z"
       sodipodi:nodetypes="sssssssssssssssssss"
       inkscape:export-filename="tools.png"
       inkscape:export-xdpi="96"
       inkscape:export-ydpi="96" /><path
       style="fill:#000000;fill-opacity:1;stroke:#000000;stroke-width:0.8;stroke-linecap:round;stroke-linejoin:round;stroke-miterlimit:2.6;stroke-dasharray:none;stroke-opacity:1;paint-order:stroke fill markers"
       d="m 48.552634,240.73871 c 0.202572,-0.22638 0.448542,-0.41379 0.720569,-0.54901 0.422905,-0.21022 0.90112,-0.29151 1.373386,-0.29401 0.472266,-0.002 0.941536,0.071 1.40595,0.15676 1.032639,0.19077 2.068197,0.44909 2.985217,0.96076 1.200893,0.67007 2.124776,1.72996 3.122465,2.6764 0.669735,0.63533 1.40161,1.25298 1.784268,2.09308 0.09012,0.19786 0.159165,0.40529 0.205875,0.61763 0.06182,0.28102 0.08441,0.57052 0.06863,0.85782 -0.0076,0.13834 -0.02404,0.27624 -0.02601,0.41478 -0.002,0.13854 0.01105,0.27923 0.06032,0.40873 0.03457,0.0909 0.08718,0.17551 0.15753,0.24262 0.07035,0.0671 0.158793,0.11622 0.254226,0.13482 0.101102,0.0197 0.2087,0.004 0.300237,-0.0429 l 0.651942,-0.36886 0.420332,0.41176 c 0.218803,0.18937 0.430592,0.38685 0.634787,0.59189 0.11989,0.12039 0.237163,0.24338 0.351708,0.36886 l 0.03002,0.33455 0.02146,0.36887 -0.574741,0.60047 -1.166635,1.22668 -0.720569,0.80635 -0.240192,0.22304 c -0.116964,0.014 -0.234237,0.0255 -0.351705,0.0343 -0.10628,0.008 -0.21533,0.0136 -0.317394,-0.0171 -0.09132,-0.0275 -0.172181,-0.0828 -0.242064,-0.14772 -0.06988,-0.0649 -0.129895,-0.13947 -0.191135,-0.21256 -0.12418,-0.14821 -0.254428,-0.29134 -0.390309,-0.42891 l -0.386019,-0.42033 -0.175852,-0.22733 0.369523,-0.39576 c 0.06461,-0.15904 0.114702,-0.32397 0.149456,-0.49208 0.02333,-0.11287 0.03981,-0.22801 0.03431,-0.34313 -0.0076,-0.15842 -0.05757,-0.31462 -0.143424,-0.44797 -0.08585,-0.13336 -0.207328,-0.24355 -0.348402,-0.31602 l -0.357415,-0.13672 c -0.159709,-0.0599 -0.325827,-0.10257 -0.494592,-0.1272 -0.214389,-0.0313 -0.433029,-0.0333 -0.647961,-0.006 -0.09905,0.10223 -0.229561,0.17356 -0.369093,0.20173 -0.139533,0.0282 -0.287491,0.0131 -0.418449,-0.0427 -0.115763,-0.0493 -0.216622,-0.12876 -0.305009,-0.21832 -0.08839,-0.0896 -0.165336,-0.18958 -0.243996,-0.28779 -0.35445,-0.44256 -0.748244,-0.8536 -1.175216,-1.22668 l -1.09801,-1.20095 c -0.0813,-0.0485 -0.137194,-0.13732 -0.145828,-0.23161 -0.0063,-0.0689 0.012,-0.13983 0.05088,-0.19708 0.03888,-0.0572 0.09805,-0.10042 0.164438,-0.11996 l 0.124689,-0.7295 -0.05337,-0.82854 -0.516164,-0.99152 -1.460376,-1.10511 c -0.525941,-0.25119 -1.061132,-0.48301 -1.604124,-0.69483 -0.351433,-0.1371 -0.706132,-0.26582 -1.063696,-0.38602 -0.118573,-0.0515 -0.208346,-0.16451 -0.231614,-0.29166 -0.01254,-0.0685 -0.0066,-0.14037 0.01717,-0.20588 z"
       id="path22"
       inkscape:path-effect="#path-effect22"
       inkscape:original-d="m 48.552634,240.73871 c 0.0057,-0.0686 0.457504,-0.34313 0.720569,-0.54901 0.263064,-0.20587 1.887204,-0.0915 2.779336,-0.13725 0.892136,-0.0457 1.96727,0.61763 2.985217,0.96076 1.017945,0.34313 2.081644,1.78427 3.122465,2.6764 1.040823,0.89214 1.189511,1.41826 1.784268,2.09308 0.594754,0.67482 0.148688,0.41176 0.205875,0.61763 0.05719,0.20588 0.03431,0.54901 0.06863,0.85782 0.03431,0.30882 0.03431,0.56045 0.03431,0.82351 0,0.26307 0.274503,0.24019 0.411756,0.37744 0.13725,0.13726 0.494676,-0.11151 0.300237,-0.0429 0.194439,-0.0858 0.792053,-0.43748 0.651942,-0.36886 0.157269,-0.0686 0.566162,0.53185 0.420332,0.41176 0.154408,0.13725 0.43463,0.37743 0.634787,0.59189 0.20016,0.21445 0.468942,0.4861 0.351708,0.36886 0.117234,0.10008 0.0529,0.49182 0.03002,0.33455 0.02289,0.1487 0.01571,0.44893 0.02146,0.36887 -0.0057,0.0715 -0.769181,0.80921 -0.574741,0.60047 -0.203018,0.22589 -1.546937,1.62986 -1.166635,1.22668 -0.363144,0.40318 -0.972196,1.078 -0.720569,0.80635 -0.268785,0.28023 -0.308817,0.29452 -0.240192,0.22304 -0.05147,0.0715 -0.22875,0.0229 -0.351705,0.0343 -0.122954,0.0114 -0.211595,-0.0114 -0.317394,-0.0171 -0.105796,-0.006 -0.301667,-0.23732 -0.433199,-0.36028 -0.131532,-0.12295 -0.527559,-0.5633 -0.390309,-0.42891 -0.120094,-0.11724 -0.517551,-0.5633 -0.386019,-0.42033 -0.122954,-0.13439 -0.221601,-0.30453 -0.175852,-0.22733 -0.04575,-0.0858 0.39526,-0.54159 0.369523,-0.39576 0.01714,-0.12867 0.01792,-0.34053 0.149456,-0.49208 0.131533,-0.15155 0.02289,-0.22875 0.03431,-0.34313 0.01143,-0.11437 -0.586187,-0.91554 -0.491826,-0.76399 -0.08578,-0.15155 -0.540416,-0.28255 -0.357415,-0.13672 -0.165846,-0.13725 1.073313,0.4058 -0.494592,-0.1272 -0.131532,-0.0372 -0.856696,-0.006 -0.647961,-0.006 -0.200157,0 -0.495884,0.11613 -0.787542,0.159 -0.291661,0.0429 -0.366004,-0.3374 -0.549005,-0.50611 -0.183002,-0.1687 -1.564093,-1.64129 -1.175216,-1.22668 -0.380299,-0.43177 -1.466871,-1.59269 -1.09801,-1.20095 -0.368861,-0.38316 -0.09722,-0.15155 -0.145828,-0.23161 -0.04861,-0.0801 0.309677,-0.49146 0.215316,-0.31704 0.0772,-0.17442 0.161861,-0.89821 0.124689,-0.7295 0.03717,-0.15155 -0.09055,-1.11162 -0.05337,-0.82854 -0.02859,-0.2745 -0.696305,-1.32607 -0.516164,-0.99152 -0.171564,-0.32597 -1.932176,-1.46825 -1.460376,-1.10511 -0.454644,-0.36314 -1.063696,-0.46322 -1.604124,-0.69483 -0.540427,-0.23162 -1.423982,-0.5147 -1.063696,-0.38602 -0.377442,-0.12868 -0.160129,-0.19444 -0.231614,-0.29166 -0.07148,-0.0972 0.01143,-0.13725 0.01717,-0.20588 z"
       sodipodi:nodetypes="sscssssssscccscccccccscsccccssccccssccscccccscsss" /><path
       style="fill:none;fill-opacity:1;stroke:#000000;stroke-width:0.8;stroke-linecap:round;stroke-linejoin:round;stroke-miterlimit:2.6;stroke-dasharray:none;stroke-opacity:1;paint-order:stroke markers fill"
       d="m 52.052539,247.42971 2.77934,2.98521 -12.867307,15.23489 -4.289102,-4.25479 z"
       id="path23" /><path
       style="fill:#000000;fill-opacity:1;stroke:#000000;stroke-width:0.799999;stroke-linecap:round;stroke-linejoin:round;stroke-miterlimit:2.6;stroke-dasharray:none;stroke-opacity:1;paint-order:stroke markers fill"
       d="m 43.542963,250.75805 2.985214,-2.91659 2.676401,2.33327 -3.019528,3.01953 z"
       id="path25" /><path
       style="fill:#000000;fill-opacity:1;stroke:#000000;stroke-width:0.799999;stroke-linecap:round;stroke-linejoin:round;stroke-miterlimit:2.6;stroke-dasharray:none;stroke-opacity:1;paint-order:stroke markers fill"
       d="m 52.674591,253.27962 10.699906,8.75888 -3.347558,3.27893 -9.948469,-9.19905 z"
       id="path26"
       sodipodi:nodetypes="ccccc" /><path
       style="fill:#000000;fill-opacity:1;stroke:#000000;stroke-width:0.799999;stroke-linecap:round;stroke-linejoin:round;stroke-miterlimit:2.6;stroke-dasharray:none;stroke-opacity:1;paint-order:stroke fill markers"
       d="m 89.190141,185.56208 0.09705,12.66519 9.947759,0.19411 0.04852,-9.36545 -7.278846,-0.14558 z"
       id="path27" /></g></svg>
